<mxfile host="app.diagrams.net" modified="2023-11-07T17:20:48.955Z" agent="Mozilla/5.0 (Windows NT 10.0; Win64; x64; rv:109.0) Gecko/20100101 Firefox/119.0" etag="xZHA8KsewauKzmif3guK" version="22.0.8" type="google">
  <diagram name="Page-1" id="rh3G6_-PAPEWU3ZlsqPR">
    <mxGraphModel grid="1" page="1" gridSize="10" guides="1" tooltips="1" connect="1" arrows="1" fold="1" pageScale="1" pageWidth="850" pageHeight="1100" math="1" shadow="0">
      <root>
        <mxCell id="0" />
        <mxCell id="1" parent="0" />
        <mxCell id="LNBtL-OUFiTYOPxDa9G3-7" value="" style="ellipse;whiteSpace=wrap;html=1;strokeColor=#000000;" vertex="1" parent="1">
          <mxGeometry x="3720" y="200" width="370" height="370" as="geometry" />
        </mxCell>
        <mxCell id="vTeC7MxBw6ICrQF9Bca6-48" value="&lt;div&gt;Filter (liquid)&lt;/div&gt;&lt;div&gt;&lt;br&gt;&lt;/div&gt;" style="text;whiteSpace=wrap;html=1;fillColor=none;fontSize=50;" vertex="1" parent="1">
          <mxGeometry x="3930" y="260" width="170" height="40" as="geometry" />
        </mxCell>
        <mxCell id="LNBtL-OUFiTYOPxDa9G3-6" value="&lt;font style=&quot;font-size: 10px;&quot;&gt;Aging&lt;/font&gt;" style="ellipse;whiteSpace=wrap;html=1;aspect=fixed;fillColor=#FFFFFF;strokeColor=#F19C99;strokeWidth=2;dashed=1;dashPattern=8 8;" vertex="1" parent="1">
          <mxGeometry x="3860" y="255" width="50" height="50" as="geometry" />
        </mxCell>
        <mxCell id="LNBtL-OUFiTYOPxDa9G3-19" value="" style="endArrow=classic;html=1;rounded=0;" edge="1" parent="1" source="LNBtL-OUFiTYOPxDa9G3-6" target="pPfBAtV8c-2s1zI3k7Tt-5">
          <mxGeometry width="50" height="50" relative="1" as="geometry">
            <mxPoint x="3770" y="490" as="sourcePoint" />
            <mxPoint x="3820" y="440" as="targetPoint" />
          </mxGeometry>
        </mxCell>
        <mxCell id="LNBtL-OUFiTYOPxDa9G3-29" value="Wear" style="ellipse;whiteSpace=wrap;html=1;aspect=fixed;fillColor=#FFFFFF;strokeColor=#F19C99;strokeWidth=2;dashed=1;dashPattern=8 8;" vertex="1" parent="1">
          <mxGeometry x="3745" y="320" width="50" height="50" as="geometry" />
        </mxCell>
        <mxCell id="LNBtL-OUFiTYOPxDa9G3-31" value="" style="endArrow=classic;html=1;rounded=0;" edge="1" parent="1" source="LNBtL-OUFiTYOPxDa9G3-29" target="pPfBAtV8c-2s1zI3k7Tt-5">
          <mxGeometry width="50" height="50" relative="1" as="geometry">
            <mxPoint x="3778" y="395" as="sourcePoint" />
            <mxPoint x="3823" y="414" as="targetPoint" />
          </mxGeometry>
        </mxCell>
        <mxCell id="pPfBAtV8c-2s1zI3k7Tt-1" value="&lt;font style=&quot;font-size: 14px;&quot;&gt;$$F_{remove\_contaminants}$$&lt;/font&gt;" style="ellipse;whiteSpace=wrap;html=1;aspect=fixed;fillColor=#A9C4EB;" vertex="1" parent="1">
          <mxGeometry x="3940" y="440" width="80" height="80" as="geometry" />
        </mxCell>
        <mxCell id="pPfBAtV8c-2s1zI3k7Tt-3" value="&lt;font style=&quot;font-size: 14px;&quot;&gt;$$H_{blockage}$$&lt;/font&gt;" style="ellipse;whiteSpace=wrap;html=1;aspect=fixed;fillColor=#CCCCCC;" vertex="1" parent="1">
          <mxGeometry x="3860" y="365" width="80" height="80" as="geometry" />
        </mxCell>
        <mxCell id="pPfBAtV8c-2s1zI3k7Tt-4" value="" style="endArrow=classic;html=1;rounded=0;" edge="1" parent="1" source="pPfBAtV8c-2s1zI3k7Tt-3" target="pPfBAtV8c-2s1zI3k7Tt-1">
          <mxGeometry width="50" height="50" relative="1" as="geometry">
            <mxPoint x="3835" y="451" as="sourcePoint" />
            <mxPoint x="3941.726263835347" y="441.220760456981" as="targetPoint" />
          </mxGeometry>
        </mxCell>
        <mxCell id="pPfBAtV8c-2s1zI3k7Tt-5" value="" style="ellipse;whiteSpace=wrap;html=1;aspect=fixed;fillColor=#000000;strokeColor=#000000;" vertex="1" parent="1">
          <mxGeometry x="3820" y="340" width="10" height="10" as="geometry" />
        </mxCell>
        <mxCell id="pPfBAtV8c-2s1zI3k7Tt-7" value="" style="endArrow=classic;html=1;rounded=0;" edge="1" parent="1" source="pPfBAtV8c-2s1zI3k7Tt-5" target="pPfBAtV8c-2s1zI3k7Tt-3">
          <mxGeometry width="50" height="50" relative="1" as="geometry">
            <mxPoint x="3837" y="299" as="sourcePoint" />
            <mxPoint x="3817" y="360" as="targetPoint" />
          </mxGeometry>
        </mxCell>
        <mxCell id="lDR7KsSYLmUhV_dl409t-1" value="Usage" style="ellipse;whiteSpace=wrap;html=1;aspect=fixed;fillColor=#FFFFFF;strokeColor=#F19C99;strokeWidth=2;dashed=1;dashPattern=8 8;" vertex="1" parent="1">
          <mxGeometry x="3790" y="260" width="50" height="50" as="geometry" />
        </mxCell>
        <mxCell id="lDR7KsSYLmUhV_dl409t-2" value="" style="endArrow=classic;html=1;rounded=0;" edge="1" parent="1" source="lDR7KsSYLmUhV_dl409t-1" target="pPfBAtV8c-2s1zI3k7Tt-5">
          <mxGeometry width="50" height="50" relative="1" as="geometry">
            <mxPoint x="3878" y="308" as="sourcePoint" />
            <mxPoint x="3825" y="345" as="targetPoint" />
          </mxGeometry>
        </mxCell>
      </root>
    </mxGraphModel>
  </diagram>
</mxfile>
